<?xml version="1.0" encoding="UTF-8"?>
<svg id="Layer_2" data-name="Layer 2" xmlns="http://www.w3.org/2000/svg" xmlns:xlink="http://www.w3.org/1999/xlink" viewBox="0 0 645.64 903.86">
  <defs>
    <style>
      .cls-1 {
        clip-path: url(#clippath);
      }

      .cls-2 {
        fill: none;
      }

      .cls-2, .cls-3, .cls-4 {
        stroke-width: 0px;
      }

      .cls-3 {
        fill: #97d6ef;
      }

      .cls-4 {
        fill: #f4f3f3;
      }
    </style>
    <clipPath id="clippath">
      <rect class="cls-2" x="-84.21" y="236.47" width="814.5" height="431.25" transform="translate(-202.28 633.13) rotate(-73.47)"/>
    </clipPath>
  </defs>
  <g id="Layer_1-2" data-name="Layer 1">
    <g class="cls-1">
      <path class="cls-4" d="M173.68,732.31l-50.9,38.04-15.88-69.99,66.78,31.95ZM137.83,683.64l34.56,45.92-64.68-30.94,30.12-14.98ZM123.58,676.69l12.34,5.76-27.1,13.48,14.76-19.24ZM137.28,680.98l-12.84-6,19.19-65.03-6.35,71.03ZM198.37,678.68l-59.19,2.74,7-78.3,52.19,75.56ZM245.11,626.28l-44.9,51.71-52.52-76.06,97.42,24.35ZM246.66,627.43l40.45,78.2-85.3-26.55,44.85-51.65ZM268.94,764.07l-32.9-48.6,51.59-7.08-18.69,55.68ZM184.54,770.63l49.72-54.35,33.23,49.09-82.96,5.26ZM229.81,794.98l-44.04-22.51,80.34-5.1-36.31,27.6ZM221.18,842.85l-36.67-68.86,44.34,22.66-7.67,46.2ZM125.06,772.95l56.58-.25,37.16,69.79-93.74-69.54ZM174.84,733.84l6.24,36.94-56,.25,49.76-37.19ZM189.22,700.59l-13.89,29.68-34.59-45.95,48.47,16.27ZM190.04,698.84l-46.76-15.69,55.3-2.56-8.54,18.25ZM230.92,712.56l-39.04-13.1,8.53-18.23,30.51,31.33ZM203.43,681.59l81.19,25.27-49.9,6.85-31.29-32.12ZM177.3,730.6l13.75-29.4,40.12,13.47-53.88,15.93ZM231.33,716.63l-48.49,53-6.22-36.83,54.71-16.17ZM104.57,698.54c0,.06,0,.13,0,.19,0,0,0,0,0,0,0,.04.01.08.02.12l16.65,73.35c.02.07.04.14.07.21h0s0,0,0,0c.06.12.14.23.25.32h0s0,0,0,0c.01,0,.02.02.03.03l99.47,73.79c.09.07.2.13.31.16.05.02.11.03.16.03.18.02.35,0,.5-.08.08-.03.15-.08.21-.13.15-.12.26-.28.32-.47,0-.03.02-.06.02-.09,0,0,0,0,0,0,0,0,0-.02,0-.02l8.19-49.31,39.01-29.66c.1-.08.19-.18.26-.29h0s0,0,0,0c.02-.03.03-.06.04-.08h0s0,0,0,0h0s.02-.05.03-.08l19.8-58.97c.02-.07.04-.14.05-.22t0,0s0,0,0,0c0,0,0,0,0,0,0,0,0,0,0-.02,0,0,0,0,0,0,0,0,0,0,0,0,0,0,0,0,0,0h0c.01-.18-.03-.35-.11-.5l-42.16-81.49c-.12-.24-.34-.41-.58-.48-.01,0-.03,0-.05-.01l-101.41-25.35s0,0,0,0c0,0,0,0,0,0t0,0s0,0,0,0h0c-.2-.05-.41-.02-.58.05-.07.03-.14.07-.21.12-.14.1-.24.24-.31.41-.01.03-.02.06-.03.09l-22.12,74.93-17.65,23s-.03.05-.05.07c0,0,0,0,0,0-.09.12-.14.27-.15.41,0,0,0,0,0,0Z"/>
      <path class="cls-4" d="M367.1,134.22l22.97,61.8-75.47-59.61,52.5-2.19ZM402,90.69l-10.38,103.99-22.77-61.28,33.16-42.71ZM457.19,141.07l-63.83,55.52,10.69-107.05,53.14,51.53ZM468.91,73.04l-10.95,66.1-52.74-51.14,63.69-14.96ZM493.93,187.09l-34.31-46.23,10.59-63.94,23.72,110.17ZM556.86,139.9l-60.44,49.58-24.83-115.34,85.28,65.76ZM579.39,272.33l-82.16-81.03,60.49-49.62,21.66,130.65ZM490.11,269.9l6.48-76.56,81.77,80.67-88.25-4.11ZM496.58,290.04l-6.16-18.19,82.16,3.82-76.01,14.37ZM471.77,307.16l17.12-33.86,5.91,17.47-23.03,16.39ZM469.32,307.74l-31.06-89.62,49.65,52.86-18.59,36.76ZM471.35,199.56l-33.97,13.01,21.1-67.82,12.87,54.81ZM473.16,198.87l-12.56-53.47,33.69,45.37-21.13,8.1ZM487.32,267.55l-49.76-52.99,34.24-13.12,15.52,66.1ZM473.6,200.76l21.12-8.09-6.1,72.04-15.02-63.95ZM389.95,276l45.6-59.81,31.99,92.3-77.59-32.49ZM394.04,198.54l62.64-54.49-21.43,68.9-41.21-14.4ZM393.06,200.24l41.25,14.42-44.77,58.71,3.52-73.13ZM315.05,139.22l76.13,60.14-3.54,73.58-72.59-133.71ZM311.01,135.53c0,.07,0,.14.01.21.02.11.06.21.11.3l76.46,140.82s.02.03.02.04c0,0,0,0,0,0,.11.18.27.31.45.39l80.7,33.79c.06.03.12.05.18.06h0c.08.02.16.02.24.02,0,0,0,0,0,0h0c.15,0,.29-.05.43-.12h0s0,0,0,0c.03-.02.06-.04.09-.06l26.61-18.94,84.67-16s.05-.01.08-.02c.18-.05.34-.15.46-.28.05-.05.09-.11.12-.17t0,0c.1-.17.14-.37.12-.58h0s0,0,0,0c0-.02,0-.04,0-.05l-22.42-135.21s0,0,0-.01c0-.02,0,0,0,0-.04-.21-.15-.41-.32-.56-.01-.01-.03-.02-.04-.03l-88.31-68.1s-.02-.02-.04-.03t0,0s0,0,0,0h0c-.08-.06-.17-.1-.26-.12-.09-.03-.19-.04-.3-.04-.07,0-.14.01-.21.03l-66.78,15.68s-.04.01-.07.02c0,0,0,0,0,0,0,0,0,0,0,0-.03.01-.05.02-.08.03h0s0,0,0,0,0,0,0,0c0,0,0,0,0,0-.1.04-.2.11-.27.18t0,0h0s0,0,0,0h0s-.06.07-.09.1l-35.26,45.42-55.34,2.31s-.02,0-.03,0c-.23.02-.43.11-.59.26-.06.06-.12.13-.17.21-.04.07-.07.14-.09.21-.03.08-.05.16-.05.24Z"/>
      <path class="cls-4" d="M219.86,581.84l45.47,48.56-101.96-21.65,56.49-26.91ZM243.27,523.55l23.16,105.22-45.23-48.31,22.07-56.91ZM319.64,546.06l-51.1,83.39-23.72-107.77,74.82,24.39ZM310.01,475.54l9.92,68.59-74.26-24.21,64.34-44.39ZM427.24,498.14l-49.36,76.05-65.07-98.94,114.43,22.89ZM428.77,499.32l66.7,115.15-116.11-39.01,49.41-76.14ZM397.44,653.91l-18.22-76.49,115.53,38.83-97.31,37.66ZM411.07,670.14l-12.69-14.54,90.51-35.02-77.83,49.56ZM389.83,698.28l7.52-40.95,12.31,14.11-19.83,26.84ZM323.83,628.35l71.84,27.46-8.13,44.27-63.71-71.73ZM290.99,706.76l29.85-78.89,65.26,73.47-95.11,5.42ZM319.55,625.19l-49.58,5.61,50.15-81.83-.56,76.22ZM321.98,544.9l-9.67-66.9,62.69,95.32-53.02-28.42ZM355.73,594.02l-31.58-45.78,52.07,27.9-20.49,17.89ZM356.82,595.61l20.49-17.89,17.32,72.7-37.81-54.81ZM321.48,623.92l.56-75.35,32.23,46.72-32.79,28.63ZM355.37,596.88l38.85,56.31-71.88-27.48,33.03-28.83ZM289.7,704.74l-20.35-71.94,49.7-5.63-29.35,77.56ZM164.37,610.92l102.98,21.87,20.5,72.49-123.48-94.37ZM159.45,608.97c-.02.16,0,.33.06.49.02.05.04.09.07.14,0,0,0,0,0,0,.07.11.15.2.25.27l129.15,98.69s.04.03.06.04c0,0,0,0,0,0,.13.08.27.13.41.15,0,0,0,0,0,0s0,0,0,0h0s0,0,0,0c0,0,0,0,0,0h0s0,0,0,0c0,0,0,0,0,0,0,0,.02,0,.03,0,0,0,0,0,0,0,0,0,0,0,0,0t0,0s0,0,0,0t0,0s.04,0,.06,0l98.57-5.62s.1,0,.14-.02h0c.05,0,.11-.03.16-.04,0,0,0,0,0,0h0c.13-.05.26-.14.36-.25h0s.05-.05.07-.08l22.64-30.65,86.53-55.1s.06-.04.09-.06c.14-.11.24-.25.3-.41t0,0c.02-.07.04-.14.05-.21.02-.19,0-.38-.1-.56h0s-.02-.03-.02-.04l-68.75-118.7c-.12-.21-.32-.37-.56-.45-.02,0-.04-.01-.06-.01h0s0,0,0,0c0,0-.02,0-.02,0l-118.07-23.61c-.17-.04-.36-.02-.54.04,0,0,0,0,0,0,0,0,0,0,0,0h0s0,0,0,0c-.07.03-.14.07-.2.11l-67.21,46.36c-.06.04-.11.08-.15.13,0,0,0,0,0,0,0,0,0,0,0,0-.09.09-.15.2-.19.31l-23.3,60.07-59.34,28.26c-.21.1-.37.27-.46.47,0,0,0,0,0,0-.04.08-.06.17-.08.26Z"/>
      <path class="cls-3" d="M236.76,443.9l-39.64,104.36-95.27-94.02,134.91-10.34ZM202.09,367.8l34.64,74.19-134.18,10.26,99.54-84.45ZM184.1,356.46l16.69,9.93-92.51,78.48,75.82-88.41ZM201.89,316.6l-.4,47.97-16.37-9.75,16.77-38.22ZM287.98,362.43l-84.58,2.83.44-51.67,84.14,48.84ZM308.29,263.27l-17.64,98.49-85.69-49.74,103.34-48.75ZM346.18,332.98l-53.54,28.53,17.37-96.98,36.16,68.45ZM465.59,309.33l-117.59,22.96-36.51-69.11,154.11,46.15ZM409.62,365.69l-59.32-31.89,116.27-22.7-56.95,54.59ZM395.32,439.06l-45.83-103.51,59.22,31.83-13.39,71.68ZM307.47,448.91l40.11-112.94,46.69,105.47-86.8,7.47ZM331.41,520.31l-24.03-69.47,86.15-7.42-62.12,76.88ZM257.59,412.06l-19.26,28.82-33.28-71.27,52.54,42.45ZM258.66,410.46l-53.64-43.34,84.49-2.82-30.85,46.16ZM304.7,447.65l-44.53-35.98,30.64-45.85,13.89,81.83ZM306.4,446.2l-13.98-82.39,53.33-28.42-39.35,110.81ZM239.86,442.07l19.24-28.79,43.84,35.42-63.08-6.63ZM305.36,450.89l23.64,68.35-87.84-75.11,64.2,6.77ZM199.01,548.68l39.59-104.22,90.36,77.26-129.95,26.96ZM98.72,453.61s0,0,0,0c.03.16.09.31.2.44.02.03.05.06.08.08l97.8,96.52s.08.08.13.11h0s.05.04.08.05c.18.11.41.15.63.12h0s.03,0,.04,0l133.57-27.71c.11-.02.22-.07.33-.13,0,0,0,0,0,0h0s0,0,0,0c.01,0,.03-.02.04-.03,0,0,0,0,0,0,0,0,0,0,0,0h0s0,0,0,0c0,0,0,0,0,0,.07-.05.13-.11.18-.17l64.62-79.97s.06-.08.08-.12c.06-.1.1-.2.12-.31t0,0l14.03-75.11,59.59-57.12s0,0,.01-.01h0s0,0,0,0c.12-.12.2-.26.24-.4.03-.09.04-.18.04-.27h0s0,0,0,0c0,0,0,0,0,0,0-.05,0-.1-.01-.14-.03-.18-.1-.35-.23-.49h0s-.05-.06-.09-.09c-.11-.1-.23-.17-.37-.2l-160.01-47.91s0,0,0,0c-.02,0-.06,0-.07-.02,0,0,0,0,0,0-.08-.02-.17-.02-.25-.02,0,0,0,0,0,0-.12,0-.24.04-.35.09l-106.68,50.32s-.1.05-.14.08c0,0,0,0,0,0,0,0,0,0,0,0-.14.1-.25.23-.32.4l-18.93,43.16-84.12,98.1s-.05.06-.07.09c-.1.15-.16.33-.17.5-.01.07,0,.14,0,.21Z"/>
    </g>
    <rect class="cls-2" x="-84.21" y="236.47" width="814.5" height="431.25" transform="translate(-202.28 633.13) rotate(-73.47)"/>
    <rect class="cls-2" width="468.72" height="703.92"/>
  </g>
</svg>