<?xml version="1.0" encoding="UTF-8"?>
<svg id="Layer_2" data-name="Layer 2" xmlns="http://www.w3.org/2000/svg" xmlns:xlink="http://www.w3.org/1999/xlink" viewBox="0 0 1059.19 923.5">
  <defs>
    <style>
      .cls-1 {
        clip-path: url(#clippath);
      }

      .cls-2 {
        fill: none;
      }

      .cls-2, .cls-3, .cls-4, .cls-5 {
        stroke-width: 0px;
      }

      .cls-3 {
        fill: #97d6ef;
      }

      .cls-4 {
        fill: #f4f3f3;
      }

      .cls-5 {
        fill: #fff;
      }
    </style>
    <clipPath id="clippath">
      <rect class="cls-2" x="260.03" y="73.62" width="458.25" height="865.5" transform="translate(-195.46 670.65) rotate(-59.48)"/>
    </clipPath>
  </defs>
  <g id="Layer_1-2" data-name="Layer 1">
    <g class="cls-1">
      <path class="cls-5" d="M739.78,732.3l26.15,62.24-76.23-1.59,50.08-60.65ZM680.41,756.76l56.22-23.84-48.51,58.74-7.71-34.9ZM669.58,769.67l9.11-11.24,6.94,31.4-16.05-20.16ZM677.52,756.64l-9.49,11.7-62.12-36.48,71.6,24.78ZM690.83,693.08l-12.37,61.73-78.92-27.32,91.3-34.41ZM648.82,631.44l41.78,59.57-91.9,34.62,50.12-94.19ZM650.39,630.13l91-21.63-49.27,81.13-41.73-59.5ZM796.98,642.25l-58.55,21.44,5.94-55.01,52.61,33.56ZM782.08,730.95l-43.26-65.22,59.14-21.66-15.87,86.87ZM818.81,690.53l-34.51,39.62,15.37-84.14,19.14,44.52ZM865.94,711.71l-80.41,20.13,34.75-39.9,45.66,19.77ZM769.2,792.86l14.27-58.4,81.49-20.4-95.76,78.79ZM741.66,731.49l39.69,3.05-14.12,57.8-25.57-60.85ZM711.07,708.13l27.04,21.94-56.25,23.86,29.22-45.8ZM709.48,706.84l-28.18,44.18,11.56-57.67,16.62,13.49ZM734.12,668.22l-23.53,36.89-16.61-13.48,40.14-23.41ZM695.14,688.61l46.89-77.22-5.74,53.2-41.15,24.02ZM738.95,728.13l-26.77-21.73,24.18-37.91,2.59,59.63ZM738.42,668.84l42.19,63.6-39.57-3.04-2.63-60.56ZM687.23,794.88c.06.02.13.04.2.05,0,0,0,0,0,0,.04,0,.09,0,.13,0l79.9,1.67c.08,0,.16,0,.23-.02h0s0,0,0,0c.14-.03.27-.09.39-.18h0s0,0,0,0c.01,0,.02-.02.04-.03l101.61-83.61c.1-.08.18-.17.25-.28.04-.05.06-.11.08-.16.07-.18.08-.36.05-.53-.02-.09-.04-.17-.08-.25-.09-.18-.23-.34-.41-.45-.03-.02-.06-.03-.09-.05,0,0,0,0,0,0,0,0-.02,0-.02-.01l-48.74-21.1-20.56-47.83c-.05-.13-.13-.24-.23-.34h0s0,0,0,0c-.02-.02-.05-.05-.08-.07h0s0,0,0,0t0,0s-.05-.03-.07-.05l-55.72-35.55c-.06-.04-.14-.08-.21-.11t0,0s0,0,0,0c0,0,0,0,0,0,0,0,0,0-.02,0,0,0,0,0,0,0,0,0,0,0,0,0,0,0,0,0,0,0t0,0c-.18-.06-.37-.06-.54-.02l-94.84,22.54c-.28.07-.51.24-.64.47,0,.01-.02.03-.03.04l-52.16,98.04s0,0,0,0c0,0,0,0,0,0t0,0s0,0,0,0h0c-.1.2-.13.41-.1.62.01.08.04.17.07.24.07.17.19.31.34.43.03.02.06.04.09.06l71.57,42.04,19.18,24.1s.04.05.06.07c0,0,0,0,0,0,.11.12.24.21.39.26,0,0,0,0,0,0Z"/>
      <path class="cls-4" d="M172.84,379.35l69.61-7.81-80.83,62.5,11.22-54.69ZM136.92,332.19l104.55,37.4-69.03,7.75-35.52-45.15ZM203.02,288.23l40.86,80.06-107.62-38.5,66.77-41.56ZM135.9,258.69l65.33,28.25-66.26,41.24.93-69.5ZM259.9,262.16l-56.47,23.5-63.2-27.33,119.67,3.83ZM227.41,185.18l35.6,75.04-125.29-4.01,89.69-71.03ZM369.72,195.95l-104.63,63.9-35.63-75.1,140.26,11.21ZM344.3,287.37l-77.26-26.34,104.16-63.59-26.89,89.93ZM366.72,285.86l-20.34,1.68,25.04-83.72-4.7,82.05ZM378,315.84l-30.51-26.35,19.53-1.61,10.99,27.95ZM377.97,318.51l-100.37,9.02,67.25-37.61,33.12,28.6ZM266.97,288.65l4.69,38.36-64.5-39.16,59.81.8ZM266.72,286.6l-58.34-.78,55.42-23.08,2.92,23.86ZM341.16,289.64l-67.4,37.7-4.73-38.66,72.13.96ZM268.78,286.63l-2.92-23.85,72.71,24.78-69.79-.94ZM324.87,392.19l-49.95-62.37,103.36-9.28-53.41,71.65ZM246.07,368.09l-40.1-78.57,65.53,39.78-25.43,38.79ZM247.56,369.53l25.45-38.82,49.04,61.23-74.49-22.4ZM164.63,434.3l81.54-63.05,74.94,22.54-156.49,40.51ZM159.79,437.51c.07.02.14.03.22.04.12,0,.23,0,.34-.04l164.81-42.67s.03,0,.05-.01c0,0,0,0,0,0,.21-.07.39-.2.51-.37l55.55-74.53c.04-.05.08-.11.11-.17h0c.04-.08.06-.16.08-.24,0,0,0,0,0,0h0c.03-.15.03-.32-.02-.47h0s0,0,0,0c0-.04-.02-.07-.04-.11l-12.69-32.29,5.24-91.4s0-.06,0-.08c0-.2-.07-.39-.17-.55-.04-.06-.09-.12-.14-.17t0,0c-.15-.14-.35-.24-.57-.27h0s0,0,0,0c-.02,0-.04,0-.05,0l-145.15-11.6s0,0-.01,0c-.03,0,0,0,0,0-.23-.02-.46.05-.66.19-.02.01-.03.02-.05.03l-92.88,73.56s-.02.02-.04.03t0,0s0,0,0,0h0c-.08.07-.14.15-.19.24-.05.09-.09.19-.12.3-.02.08-.03.15-.03.22l-.98,72.88s0,.05,0,.07c0,0,0,0,0,0,0,0,0,0,0,0,0,.03,0,.06,0,.09h0s0,0,0,0t0,0s0,0,0,0c.02.12.06.23.12.33t0,0h0s0,0,0,0h0s.05.08.08.12l37.77,48.01-11.83,57.65s0,.02,0,.03c-.04.24,0,.48.12.67.05.08.11.16.17.23.06.06.13.11.2.15.07.05.15.09.24.11Z"/>
      <path class="cls-4" d="M596.51,646.06l61.74-34.41-48.5,99.55-13.24-65.15ZM542.42,606.96l114.42,3.13-61.42,34.23-53-37.37ZM585.24,534l72.85,74.09-117.2-3.21,44.35-70.88ZM510.06,525.83l73.26,7.39-44.02,70.34-29.24-77.73ZM563.46,410.78l65.74,70.41-118.71,41.69,52.97-112.1ZM565.06,409.5l135.84-39.2-70.03,109.69-65.81-70.49ZM716.4,481.49l-83.53-.85,69.69-109.13,13.84,109.99ZM736.63,471.61l-18.24,9.35-12.87-102.3,31.11,92.96ZM760.19,500.72l-40.29-18.26,17.71-9.07,22.58,27.33ZM671.15,550.81l46.76-67.01,43.55,19.74-90.31,47.27ZM743.56,604.8l-73.67-51.03,92.5-48.42-18.83,99.44ZM666.79,554.42l-6.94,52.56-71.49-72.71,78.43,20.15ZM584.65,531.3l-71.46-7.2,114.37-40.16-42.91,47.37ZM643.95,509.12l-55.31,20.81,42.13-46.52,13.18,25.71ZM645.87,508.39l-13.18-25.72,79.4.81-66.21,24.91ZM665.98,552.1l-77.53-19.92,56.44-21.24,21.09,41.15ZM646.81,510.22l68.03-25.6-46.78,67.05-21.25-41.46ZM741.15,605.62l-79.39,2.51,6.96-52.68,72.43,50.17ZM612.25,710.74l48.99-100.55,80-2.53-128.99,103.08ZM608.97,715.31c.16.06.34.09.53.06.05,0,.11-.02.16-.04,0,0,0,0,0,0,.13-.04.24-.11.34-.19l134.9-107.81s.04-.03.06-.05c0,0,0,0,0,0,.12-.11.2-.24.26-.39,0,0,0,0,0,0h0s0,0,0,0,0,0,0,0c0,0,0,0,0,0h0s0,0,0,0c0,0,0,0,0,0,0,0,0-.02,0-.03,0,0,0,0,0,0,0,0,0,0,0,0t0,0s0,0,0,0h0s.01-.04.01-.07l19.51-103.06c.01-.05.02-.1.02-.15h0c0-.06,0-.12,0-.17,0,0,0,0,0,0h0c-.02-.15-.07-.3-.16-.44h0s-.04-.06-.06-.09l-25.78-31.21-34.59-103.35s-.03-.07-.04-.11c-.08-.17-.2-.31-.35-.42t0,0c-.06-.04-.13-.08-.2-.11-.19-.07-.39-.09-.6-.04h0s-.03,0-.05.01l-140.03,40.41c-.25.07-.47.23-.6.46-.01.02-.02.04-.03.05h0s0,0,0,0c0,0,0,.02,0,.02l-54.66,115.66c-.08.17-.12.36-.09.56,0,0,0,0,0,0,0,0,0,0,0,0h0s0,0,0,0c.01.08.03.16.06.24l30.54,81.19c.02.07.06.13.09.19,0,0,0,0,0,0,0,0,0,0,0,0,.07.11.17.21.27.28l55.95,39.44,13.9,68.43c.05.25.18.45.36.6,0,0,0,0,0,0,.07.06.16.11.25.14Z"/>
      <path class="cls-3" d="M458.64,593.23l97.41,67.66-121.39,74.08,23.98-141.74ZM371.29,609.43l85.37-16.67-23.86,140.96-61.51-124.3ZM354.97,625.07l14.52-14.66,57.17,115.52-71.69-100.86ZM318.45,596.5l49.35,12.73-14.25,14.37-35.1-27.1ZM387.8,519.51l-18.8,87.92-53.15-13.71,71.95-74.21ZM290.79,473.11l97.01,43.47-73.28,75.58-23.73-119.05ZM372.38,451.94l15.67,62.52-95.52-42.81,79.85-19.71ZM378.66,322.77l-6.52,127.13-80.62,19.9,87.14-147.03ZM422.39,394.93l-48.1,52.97,6.45-125.69,41.66,72.72ZM494.35,428.51l-118.48,20.67,48.02-52.88,70.46,32.21ZM481.96,521.61l-106.14-70.34,120.72-21.06-14.58,91.41ZM561.72,515.26l-77.78,6.94,14.47-90.72,63.32,83.78ZM431.17,563.57l24.77,27.26-82.02,16.01,57.25-43.27ZM429.79,562.06l-58.45,44.18,18.78-87.83,39.67,43.65ZM479.95,524.15l-48.52,36.67-39.41-43.36,87.93,6.69ZM478.89,522.02l-88.53-6.73-15.61-62.28,104.14,69.01ZM457.55,589.56l-24.74-27.22,47.77-36.1-23.03,63.32ZM483.46,524.3l76.53-6.83-99.99,71.28,23.46-64.45ZM556.97,659.04l-97.28-67.57,102.85-73.32-5.57,140.89ZM433.21,738.02s0,0,0,0c.17.01.34-.02.5-.1.04-.02.07-.04.1-.06l124.62-76.05c.05-.03.1-.06.15-.1h0s.05-.04.07-.07c.16-.16.26-.38.28-.62h0s0-.03,0-.05l5.72-144.82c0-.12-.01-.25-.05-.37,0,0,0,0,0,0h0s0,0,0,0c0-.02-.01-.03-.02-.05,0,0,0,0,0,0,0,0,0,0,0,0h0s0,0,0,0c0,0,0,0,0,0-.03-.08-.08-.16-.13-.23l-65.86-87.15s-.06-.08-.1-.12c-.09-.08-.18-.15-.29-.2t0,0l-73.83-33.75-43.58-76.1s0,0,0-.01h0s0,0,0,0c-.09-.15-.21-.27-.35-.36-.08-.05-.17-.09-.26-.11,0,0,0,0,0,0h0s0,0,0,0c0,0,0,0,0,0-.05-.01-.1-.02-.15-.03-.19-.02-.38.02-.56.11h0s-.07.04-.11.07c-.13.09-.24.19-.3.33l-90.48,152.67s0,0,0,0c-.01.02-.03.06-.04.07,0,0,0,0,0,0-.04.08-.07.16-.08.25,0,0,0,0,0,0-.02.13-.02.26,0,.39l24.49,122.9c.01.06.03.11.05.17,0,0,0,0,0,0,0,0,0,0,0,0,.07.17.17.32.33.44l39.63,30.6,79.54,111.91s.05.06.08.1c.13.15.3.25.47.3.07.03.14.04.22.05Z"/>
    </g>
    <rect class="cls-2" x="340.91" y="-15.62" width="458.25" height="865.5" transform="translate(-78.77 696.4) rotate(-59.48)"/>
  </g>
</svg>