<?xml version="1.0" encoding="UTF-8"?>
<svg id="Layer_2" data-name="Layer 2" xmlns="http://www.w3.org/2000/svg" xmlns:xlink="http://www.w3.org/1999/xlink" viewBox="0 0 551.52 412.56">
  <defs>
    <style>
      .cls-1 {
        clip-path: url(#clippath);
      }

      .cls-2 {
        fill: none;
      }

      .cls-2, .cls-3, .cls-4 {
        stroke-width: 0px;
      }

      .cls-3 {
        fill: #f4f3f3;
      }

      .cls-5 {
        clip-path: url(#clippath-1);
      }

      .cls-6 {
        clip-path: url(#clippath-2);
      }

      .cls-4 {
        fill: #f4f3f3;
      }

      .cls-7 {
        isolation: isolate;
        opacity: .13;
      }
    </style>
    <clipPath id="clippath">
      <rect class="cls-2" width="551.52" height="412.56"/>
    </clipPath>
    <clipPath id="clippath-1">
      <rect class="cls-2" x="-83.18" y="-94.69" width="412.5" height="780" transform="translate(-193.27 343.09) rotate(-75.96)"/>
    </clipPath>
    <clipPath id="clippath-2">
      <rect class="cls-2" x="-83.18" y="-94.69" width="412.5" height="780" transform="translate(-193.27 343.09) rotate(-75.96)"/>
    </clipPath>
  </defs>
  <g id="Layer_1-2" data-name="Layer 1">
    <g class="cls-7">
      <g class="cls-1">
        <g class="cls-5">
          <g class="cls-6">
            <path class="cls-4" d="M428.65,324.02l-58.14,24.54,53.85-74.65,4.28,50.11ZM471.73,355.58l-99.87-5.59,57.65-24.33,42.22,29.92ZM425.86,410.44l-55.75-58.72,102.8,5.76-47.06,52.96ZM491.39,418.81l-63.65-7.71,46.7-52.56,16.95,60.27ZM383.39,447.5l42.77-34.73,61.58,7.46-104.35,27.27ZM431.13,505.7l-49.93-55.73,109.25-28.55-59.32,84.28ZM305.45,532.76l74.06-81.93,49.97,55.77-124.02,26.16ZM304.04,447.29l73.47,3.01-73.72,81.55.25-84.55ZM285.06,454.32l17.14-6.64-.23,78.72-16.91-72.08ZM267.66,431.31l33.09,14.96-16.46,6.38-16.63-21.34ZM267,428.99l84.4-33.44-48.48,49.67-35.92-16.24ZM370.52,426.43l-13.86-31.94,65.73,17.34-51.87,14.59ZM371.26,428.13l50.6-14.23-41.98,34.1-8.62-19.87ZM306.17,444.53l48.59-49.79,13.97,32.19-62.56,17.6ZM369.47,428.63l8.61,19.85-69.14-2.83,60.52-17.02ZM294.04,351.78l59.09,41.11-86.92,34.43,27.83-75.54ZM368.27,352.46l54.72,57.63-66.77-17.62,12.05-40.01ZM366.61,351.59l-12.07,40.04-58.01-40.36,70.07.32ZM421.71,274.46l-54.33,75.3-70.5-.32,124.83-74.98ZM425.06,270.44c-.06,0-.13,0-.2.02-.1.02-.2.06-.28.12l-131.46,78.97s-.03.02-.04.02c0,0,0,0,0,0-.16.11-.29.27-.35.45l-28.94,78.57c-.02.06-.04.11-.05.18h0c-.01.08-.02.15-.01.23,0,0,0,0,0,0h0c.01.14.06.28.13.4h0s0,0,0,0c.02.03.04.06.06.08l19.22,24.65,18.83,80.29s.01.05.02.07c.06.17.16.32.29.43.05.04.11.08.17.11t0,0c.17.09.36.12.56.09h0s0,0,0,0c.02,0,.03,0,.05-.01l128.35-27.07s0,0,.01,0c.02,0,0,0,0,0,.2-.04.39-.16.52-.33.01-.01.02-.03.03-.04l61.43-87.27s.02-.02.02-.04t0,0s0,0,0,0h0c.05-.08.08-.17.11-.26s.03-.19.03-.29c0-.07-.02-.13-.04-.2l-17.78-63.2s-.01-.04-.02-.06c0,0,0,0,0,0,0,0,0,0,0,0-.01-.03-.02-.05-.03-.08h0s0,0,0,0t0,0s0,0,0,0c-.05-.1-.11-.18-.18-.25t0,0h0s0,0,0,0h0s-.06-.06-.1-.08l-44.9-31.82-4.51-52.82s0-.02,0-.03c-.03-.22-.13-.41-.28-.55-.06-.06-.13-.11-.21-.15-.07-.04-.14-.06-.21-.08-.07-.03-.15-.04-.23-.03Z"/>
            <path class="cls-4" d="M-5.48,201.89l-44.54,45.5,16.46-98.39,28.08,52.89ZM51.23,221.84l-99.64,26.53L-4.1,203.11l55.33,18.73ZM32.89,295.81l-81.86-45.38,102.06-27.17-20.2,72.56ZM99.92,283.66l-65.17,12.34,20.05-72.01,45.12,59.67ZM83.19,396.69l-74.78-44.03,91.89-66.35-17.12,110.37ZM82.13,398.2l-107.32,68.57L7.27,354.13l74.86,44.07ZM-66.99,374.69l72.37-20.61-32.31,112.08-40.06-91.47ZM-81.94,388.4l13.37-12.74,37.26,85.08-50.63-72.35ZM-109.73,369.26l39.47,5.48-12.98,12.36-26.49-17.84ZM-45.62,303.24l-23.26,69.84-42.67-5.92,65.93-63.91ZM-121.97,275.11l76.68,25.25-67.53,65.46-9.14-90.71ZM-42.78,299.01l-7.43-47.17,80.33,44.54-72.9,2.64ZM34.09,297.99l63.57-12.04-88.53,63.92,24.96-51.88ZM-11.47,332.31l42.46-32.11-24.5,50.95-17.96-18.84ZM-12.94,333.42l17.96,18.85-68.79,19.59,50.83-38.44ZM-41.48,300.81l72.07-2.61-43.33,32.77-28.74-30.16ZM-14.22,332.09l-52.22,39.5,23.28-69.88,28.95,30.38ZM-120.09,273.79l67.94-22.45,7.45,47.28-75.39-24.83ZM-35.6,150.04l-16.62,99.38-68.46,22.63,85.08-122ZM-33.94,145.26c-.16-.01-.32.01-.47.08-.05.02-.09.04-.13.07,0,0,0,0,0,0-.1.07-.18.15-.24.25l-88.98,127.6s-.03.04-.04.06c0,0,0,0,0,0-.07.12-.11.26-.13.4,0,0,0,0,0,0t0,0h0s0,0,0,0c0,0,0,0,0,0h0s0,0,0,0c0,0,0,0,0,0,0,0,0,.02,0,.02,0,0,0,0,0,0,0,0,0,0,0,0t0,0s0,0,0,0t0,0s0,.04,0,.06l9.48,94.01s.01.09.02.14h0c.01.05.03.1.05.15,0,0,0,0,0,0h0c.06.13.14.24.25.34h0s.05.04.08.06l30.25,20.37,56.29,80.44s.04.06.06.08c.11.13.25.22.41.27t0,0c.07.02.14.03.2.04.18.01.36-.02.53-.12h0s.03-.02.04-.03l110.63-70.69c.2-.12.34-.32.4-.55,0-.02,0-.04.01-.05h0s0,0,0,0c0,0,0-.01,0-.02l17.66-113.88c.03-.17,0-.34-.06-.51,0,0,0,0,0,0,0,0,0,0,0,0h0s0,0,0,0c-.03-.07-.07-.13-.11-.19l-47.13-62.33c-.04-.05-.08-.1-.13-.14,0,0,0,0,0,0,0,0,0,0,0,0-.09-.08-.2-.14-.31-.17L-3.72,201.3l-29.5-55.56c-.11-.2-.27-.34-.47-.42,0,0,0,0,0,0-.08-.03-.16-.05-.25-.06Z"/>
            <path class="cls-3" d="M127.12,212.3l-101.44-33.56,85.93-95.01,15.51,128.57ZM198.43,175.98l-69.49,36.21-15.41-127.87,84.9,91.66ZM208.53,158.3l-8.8,16.37-78.9-85.18,87.7,68.81ZM247.38,173.65l-45.88,1.61,8.64-16.05,37.25,14.44ZM207.15,257.87l-6.23-80.75,49.42-1.74-43.19,82.49ZM302.81,273.16l-94.91-12.77,43.99-84.01,50.92,96.78ZM237.74,312.3l-29.51-50,93.45,12.57-63.94,37.43ZM265.32,425.49l-26.86-111.48,64.55-37.79-37.7,149.27ZM209.1,374.33l28.02-58.05,26.55,110.22-54.57-52.17ZM138.36,363.71l97.06-48.13-27.97,57.95-69.1-9.82ZM125.27,280.12l109.66,33.64-98.9,49.04-10.76-82.68ZM58,305.99l65.42-25.87,10.68,82.07-76.1-56.19ZM158.42,230.89l-28.36-17.21,66.76-34.79-38.4,52ZM160,231.85l39.2-53.1,6.22,80.67-45.42-27.57ZM126.36,277.41l32.54-44.08,45.12,27.39-77.66,16.69ZM127.82,278.98l78.2-16.81,29.4,49.81-107.59-33ZM129,215.19l28.33,17.19-32.04,43.39,3.72-60.59ZM123.29,278.18l-64.37,25.46,68.16-87.12-3.79,61.66ZM25.36,180.57l101.3,33.51-70.11,89.62-31.19-123.13ZM112.08,80.72s0,0,0,0c-.15.03-.29.1-.41.21-.03.02-.05.05-.08.08L23.38,178.54s-.07.08-.1.12h0s-.03.05-.04.08c-.09.18-.13.39-.08.61h0s0,.03.01.04l32.06,126.56c.03.11.07.21.14.31,0,0,0,0,0,0h0s0,0,0,0c0,.01.02.02.03.04,0,0,0,0,0,0,0,0,0,0,0,0h0s0,0,0,0c0,0,0,0,0,0,.05.06.11.12.17.16l79.16,58.45s.08.05.12.07c.1.05.19.08.3.1t0,0l72.4,10.29,57.1,54.6s0,0,.01.01h0s0,0,0,0c.12.11.25.18.4.22.08.02.17.03.26.03,0,0,0,0,0,0h0s0,0,0,0c0,0,0,0,0,0,.05,0,.09,0,.14-.02.17-.03.33-.11.46-.24h0s.05-.06.08-.09c.09-.11.16-.23.18-.36l39.15-155s0,0,0,0c0-.02,0-.06.02-.07,0,0,0,0,0,0,.01-.08.02-.16,0-.24,0,0,0,0,0,0-.01-.11-.05-.23-.1-.33l-52.56-99.9s-.05-.09-.08-.13c0,0,0,0,0,0,0,0,0,0,0,0-.1-.13-.23-.23-.39-.29l-42.05-16.31-97.31-76.35s-.06-.04-.09-.06c-.15-.09-.32-.14-.48-.14-.07,0-.13,0-.2.02Z"/>
          </g>
        </g>
      </g>
    </g>
  </g>
</svg>